<svg xmlns="http://www.w3.org/2000/svg" width="46.653" height="44.441" viewBox="0 0 46.653 44.441">
  <path id="Icon_simple-whatsapp" data-name="Icon simple-whatsapp" d="M37.088,25.83c-.969-.483-5.689-2.791-6.568-3.11S29,22.237,28.354,23.2c-.634.95-2.482,3.1-3.039,3.741s-1.124.676-2.08.241A26.129,26.129,0,0,1,15.5,22.4a29.208,29.208,0,0,1-5.344-6.664c-.56-.966-.061-1.5.419-1.98.438-.435.969-1.111,1.452-1.684a8.161,8.161,0,0,0,.956-1.6,1.77,1.77,0,0,0-.08-1.687c-.241-.483-2.163-5.215-2.968-7.1C9.159-.19,8.364.048,7.769.048,7.215,0,6.574,0,5.93,0A3.629,3.629,0,0,0,3.364,1.156,10.748,10.748,0,0,0,0,9.124c0,4.684,3.445,9.224,3.925,9.9.48.628,6.777,10.286,16.419,14.439,2.3.966,4.089,1.545,5.486,2.025a13.32,13.32,0,0,0,6.053.39c1.848-.293,5.689-2.321,6.49-4.591.821-2.27.821-4.153.58-4.588s-.869-.676-1.835-1.111" transform="translate(8.722 0) rotate(14)" fill="#2c2c2c"/>
</svg>
